<svg width="1024" height="1024" viewBox="0 0 1024 1024" fill="none" xmlns="http://www.w3.org/2000/svg">
<circle cx="512" cy="512" r="512" fill="#0052FF"/>
<path fill-rule="evenodd" clip-rule="evenodd" d="M152.531 512.13C152.531 715.925 318.734 882 522.441 882C726.149 882 892.352 715.925 892.352 512.13C892.352 308.334 726.149 142.13 522.441 142.13C318.734 142.13 152.531 308.334 152.531 512.13ZM507.283 442.108C485.595 442.108 467.91 459.793 467.91 481.481V542.778C467.91 564.466 485.595 582.151 507.283 582.151H537.47C559.158 582.151 576.843 564.466 576.843 542.778V481.481C576.843 459.793 559.158 442.108 537.47 442.108H507.283Z" fill="white"/>
</svg> 