<?xml version="1.0" encoding="utf-8"?>
<svg width="500" height="500" viewBox="0 0 500 500" fill="none" xmlns="http://www.w3.org/2000/svg">
    <circle cx="250" cy="250" r="250" fill="#FF0420"/>
    <path d="M177.133 316.446C162.247 316.446 149.736 312.943 139.6 305.936C129.607 298.786 124.611 288.793 124.611 275.957C124.611 272.597 125.038 268.664 125.893 264.157L148.736 153.157C150.876 142.45 153.872 134.157 157.726 128.279C161.58 122.257 166.719 117.807 173.143 114.929C179.567 111.907 187.561 110.397 197.127 110.397C206.693 110.397 214.329 111.907 220.039 114.929C225.893 117.807 230.033 122.257 232.457 128.279C234.882 134.157 236.094 142.45 236.094 153.157L236.307 156.164C239.733 144.314 244.872 135.236 251.724 128.929C258.72 122.479 267.713 119.254 278.703 119.254C289.693 119.254 298.687 122.479 305.682 128.929C312.678 135.236 315.176 144.457 315.176 156.593C315.176 160.239 314.748 164.172 313.894 168.393L290.837 279.607C289.982 283.829 289.554 287.764 289.554 291.411C289.554 296.347 290.622 299.797 292.761 301.757C294.9 303.718 298.47 304.697 303.47 304.697C300.471 309.347 295.754 312.979 289.324 315.597C283.037 318.214 276.322 319.522 269.183 319.522C259.617 319.522 251.937 318.014 246.152 315C240.51 311.986 236.307 307.55 233.596 301.686C230.884 295.822 229.529 288.722 229.529 280.386C229.529 276.879 229.957 272.947 230.811 268.582L233.81 252.511L253.794 153.157C254.648 149.079 255.076 145.214 255.076 141.564C255.076 136.629 254.008 133.179 251.868 131.218C249.729 129.257 246.161 128.279 241.159 128.279C236.157 128.279 232.031 129.329 228.819 131.429C225.75 133.386 223.397 136.343 221.757 140.297C220.117 144.107 218.762 149.007 217.694 154.997L195.065 268.582C194.21 272.947 193.783 276.95 193.783 280.597C193.783 285.532 194.85 288.982 196.99 290.943C199.129 292.904 202.699 293.882 207.701 293.882C202.699 298.532 195.916 302.236 187.347 304.997C178.922 305.997 177.133 316.446 177.133 316.446Z" fill="white"/>
</svg> 