<svg width="300" height="185" viewBox="0 0 300 185" fill="none" xmlns="http://www.w3.org/2000/svg">
<path d="M61.4385 36.2862C116.663 -12.0955 206.337 -12.0955 261.562 36.2862L268.379 42.176C270.502 44.0198 270.502 47.3713 268.379 49.2151L246.699 68.0435C245.637 68.9654 243.984 68.9654 242.922 68.0435L233.728 60.1999C193.842 26.3162 129.158 26.3162 89.2723 60.1999L79.5781 68.5088C78.5157 69.4307 76.8628 69.4307 75.8004 68.5088L54.1209 49.6804C52.0192 47.8366 52.0192 44.4851 54.1209 42.6413L61.4385 36.2862ZM280.591 53.4025L299.227 69.4307C301.329 71.2745 301.329 74.626 299.227 76.4698L221.825 143.046C219.702 144.89 216.396 144.89 214.273 143.046L157.368 94.5775C156.837 94.1122 155.975 94.1122 155.444 94.5775L98.5391 143.046C96.4162 144.89 93.1099 144.89 91.0083 143.046L13.6064 76.4698C11.4835 74.626 11.4835 71.2745 13.6064 69.4307L32.2422 53.4025C34.3651 51.5587 37.6714 51.5587 39.773 53.4025L96.6996 101.871C97.2307 102.336 98.0925 102.336 98.6236 101.871L155.529 53.4025C157.652 51.5587 160.958 51.5587 163.06 53.4025L219.986 101.871C220.517 102.336 221.379 102.336 221.91 101.871L278.836 53.4025C280.959 51.5587 284.265 51.5587 286.367 53.4025H280.591Z" fill="#3B99FC"/>
</svg> 